PathFileType	4	(X/Y/Z)	\\Move.snu.ac.kr\motion\Animal\091204_091205_Bird\091205_bird\Project 2\Capture day 2\Session 1\pigeon_024.trc
DataRate	CameraRate	NumFrames	NumMarkers	Units	OrigDataRate	OrigDataStartFrame	OrigNumFrames
240.0	240.0	25	14	mm	240.0	150	1929
Frame#	Time	14MarkersBird:Head			14MarkersBird:C_back			14MarkersBird:Spine			14MarkersBird:L-shoulder			14MarkersBird:L-elbow			14MarkersBird:L-wrist			14MarkersBird:L-hand			14MarkersBird:R-shoulder			14MarkersBird:R-elbow			14MarkersBird:R-Wrist			14MarkersBird:R-hand			14MarkersBird:C_Tail			14MarkersBird:L-Tale			14MarkersBird:R-Tale			
		X1	Y1	Z1	X2	Y2	Z2	X3	Y3	Z3	X4	Y4	Z4	X5	Y5	Z5	X6	Y6	Z6	X7	Y7	Z7	X8	Y8	Z8	X9	Y9	Z9	X10	Y10	Z10	X11	Y11	Z11	X12	Y12	Z12	X13	Y13	Z13	X14	Y14	Z14	

1036	4.313	500.67773	1402.90869	-1686.50134	496.48911	1407.56824	-1744.87793	481.95407	1401.79517	-1798.69092	519.67529	1393.92236	-1722.45715	530.19629	1394.10266	-1759.85693	554.74017	1392.03882	-1724.49243	553.61591	1366.95801	-1714.46875	476.51276	1404.47168	-1711.40601	456.16202	1419.39221	-1737.53564	455.47571	1420.14197	-1696.43176	441.10214	1388.04150	-1680.70911	439.14255	1334.53247	-1895.70190	532.96051	1324.15454	-1856.91882	370.38965	1390.59583	-1824.10925	
1037	4.317	503.60138	1399.66602	-1677.48499	498.28357	1403.99292	-1735.20483	483.91135	1398.46387	-1789.37000	521.67694	1391.17993	-1713.42798	529.09863	1397.29297	-1752.06641	558.89008	1397.92847	-1720.78821	562.55969	1371.36133	-1718.16675	479.89359	1401.87317	-1702.64233	463.70569	1420.21130	-1731.84033	456.98639	1426.17749	-1691.62244	435.53351	1397.42480	-1680.38403	441.24765	1329.71448	-1885.62927	537.06604	1321.74902	-1846.37842	372.05252	1387.85449	-1812.97180	
1038	4.321	506.45325	1396.41602	-1668.48035	500.24213	1400.48755	-1725.61584	485.86411	1394.86450	-1780.08606	523.68286	1388.40356	-1704.24939	526.96100	1399.59326	-1743.37939	560.78827	1403.73242	-1716.35828	568.94055	1378.42090	-1722.45667	483.77664	1399.35315	-1693.95654	472.30356	1419.69360	-1725.46667	460.70288	1431.17297	-1687.47888	432.27719	1408.61292	-1681.89490	443.93466	1324.43494	-1875.63184	541.77618	1319.69226	-1835.63672	373.92413	1385.49268	-1802.42761	
1039	4.325	509.21561	1393.14807	-1659.46228	502.31250	1396.92664	-1716.19727	487.79556	1390.99158	-1770.86841	525.74573	1385.51013	-1695.09998	524.42651	1400.50952	-1734.02368	560.77289	1408.85596	-1711.00024	572.37341	1388.15344	-1725.47058	487.78668	1396.65344	-1685.33154	481.04947	1417.65320	-1718.40710	466.38815	1434.72510	-1683.47510	432.81848	1421.12708	-1684.58008	447.17447	1319.06128	-1865.95093	546.73145	1317.97131	-1825.00342	375.99838	1383.39917	-1792.53491	
1040	4.329	511.91440	1389.87231	-1650.43787	504.18945	1392.56091	-1707.44043	489.68961	1386.84192	-1761.72656	527.90460	1382.39380	-1686.14856	522.26154	1399.94031	-1724.19360	559.79193	1412.92249	-1704.80249	573.16553	1399.68555	-1725.77576	491.51074	1393.56348	-1676.73584	489.08142	1414.24475	-1710.71252	473.20996	1436.84949	-1679.09119	437.89487	1433.87781	-1687.44897	450.88358	1313.80505	-1856.72107	551.66791	1316.58972	-1814.73413	378.27158	1381.44507	-1783.25684	
1041	4.333	514.58081	1386.60938	-1641.42322	506.04001	1387.96313	-1698.95752	491.53436	1382.40344	-1752.66418	530.14966	1378.98669	-1677.44934	521.05200	1398.17566	-1714.00171	558.94775	1415.83374	-1698.01074	571.92828	1411.59644	-1722.82239	494.70291	1390.04688	-1668.13318	495.83972	1409.98486	-1702.40076	480.16284	1437.88708	-1674.00085	447.19287	1445.58582	-1689.31006	454.88196	1308.71313	-1847.93274	556.42462	1315.51489	-1804.94458	380.72198	1379.46484	-1774.45740	
1042	4.338	517.23468	1383.35217	-1632.41541	507.95795	1383.49426	-1690.56226	493.32294	1377.74268	-1743.65393	532.44171	1375.31787	-1668.94226	521.01923	1395.69312	-1703.38953	559.11060	1417.56213	-1690.85742	569.51654	1422.29272	-1716.84131	497.31168	1386.20691	-1659.48816	501.20105	1405.58887	-1693.38831	486.36917	1438.20642	-1668.02393	459.22806	1455.25208	-1688.97607	458.93335	1303.76086	-1839.49475	560.89825	1314.57312	-1795.57129	383.26321	1377.21057	-1765.89600	
1043	4.342	519.89313	1380.05359	-1623.43713	509.95938	1379.17456	-1682.24377	495.11157	1372.82410	-1734.75159	534.78021	1371.49146	-1660.53772	522.15424	1392.79932	-1692.04993	560.80835	1417.89954	-1683.54248	567.25110	1430.31079	-1708.57275	499.41815	1382.22095	-1650.76746	505.33029	1401.67578	-1683.52039	491.08612	1437.93066	-1661.06030	471.56476	1462.38196	-1685.44763	462.83017	1299.00488	-1831.33655	565.01727	1313.45703	-1786.43164	385.71701	1374.35364	-1757.26111	
1044	4.346	522.57367	1376.67932	-1614.57935	512.06915	1374.99756	-1673.97791	497.08081	1367.21753	-1726.29810	537.20929	1367.62207	-1652.18970	524.34918	1389.51489	-1679.78833	564.30774	1416.40552	-1676.31689	566.89343	1434.61389	-1699.05359	501.16470	1378.24670	-1641.96045	508.30490	1398.49316	-1672.76135	493.66953	1436.85168	-1653.08032	481.38651	1466.87732	-1678.18628	466.44077	1294.62732	-1823.44299	568.76807	1311.93030	-1777.33228	387.89725	1370.61646	-1748.27832	
1045	4.350	525.27264	1373.22375	-1605.92200	514.31281	1370.95593	-1665.73975	499.25931	1361.81726	-1718.00610	539.76727	1363.79138	-1643.89819	527.39014	1385.82397	-1667.13904	569.62842	1412.60632	-1669.42200	570.11481	1434.70874	-1689.38416	502.70709	1374.34009	-1633.09766	509.95273	1395.86804	-1661.45374	493.64941	1434.55042	-1644.11877	486.29782	1468.69580	-1667.34521	469.71603	1290.83313	-1815.79834	572.21167	1310.00610	-1768.15039	389.74585	1365.92297	-1738.82312	
1046	4.354	527.96588	1369.70215	-1597.46362	516.71600	1367.04248	-1657.50354	501.61609	1357.09387	-1709.78320	542.44769	1360.03296	-1635.66492	531.28241	1381.75061	-1655.46741	576.51117	1406.19873	-1662.91675	577.78937	1430.42590	-1680.39050	504.20007	1370.43359	-1624.21997	510.11884	1393.37927	-1650.27563	490.89218	1430.60645	-1634.23450	485.10388	1467.58191	-1653.68042	472.68362	1287.68909	-1808.30505	575.43976	1307.86121	-1758.87012	391.35388	1360.39990	-1728.94080	
1047	4.358	530.64032	1366.14404	-1589.13684	519.30450	1363.25049	-1649.24438	504.10217	1352.99377	-1701.59399	545.20294	1356.31042	-1627.45605	536.59283	1377.12219	-1646.17590	584.47626	1397.08801	-1656.57031	589.47443	1421.65210	-1672.30444	505.76910	1366.41284	-1615.31018	508.94574	1390.56226	-1639.73926	485.80862	1424.71838	-1623.44128	478.23270	1463.05225	-1638.05286	475.41391	1285.00671	-1800.75818	578.49207	1305.55371	-1749.58093	392.87683	1354.26086	-1718.78198	
1048	4.363	533.30652	1362.58862	-1580.84460	522.10376	1359.57239	-1640.93713	506.66010	1349.38904	-1693.35669	547.99438	1352.51184	-1619.21924	543.88574	1371.57056	-1639.61414	592.92120	1385.39819	-1649.85107	603.45386	1408.39124	-1664.60571	507.48096	1362.20667	-1606.29236	506.81012	1387.05042	-1629.70508	479.41403	1416.70679	-1611.63623	467.51410	1454.56604	-1620.90405	477.96335	1282.39368	-1792.90955	581.30774	1302.84082	-1740.45032	394.45761	1347.72559	-1708.53162	
1049	4.367	535.98517	1359.07458	-1572.48682	525.13934	1356.00134	-1632.55579	509.23178	1346.14966	-1684.98767	550.83679	1348.52283	-1610.90662	552.71954	1364.82080	-1634.47107	601.14453	1371.46729	-1642.00696	617.48724	1391.06018	-1656.12866	509.38821	1357.84607	-1597.08386	504.12888	1382.58789	-1619.45496	473.08597	1406.45703	-1598.61157	455.50076	1441.71350	-1602.25244	480.32755	1279.48901	-1784.57483	583.74109	1299.29773	-1731.65601	396.20743	1341.03564	-1698.37708	
1050	4.371	538.71332	1355.63660	-1563.99878	528.43658	1352.53064	-1624.07642	511.75909	1343.14575	-1676.40259	553.80115	1344.33057	-1602.46863	561.74310	1356.89905	-1628.73425	608.35736	1355.81641	-1632.26611	629.64801	1370.58521	-1645.52686	511.55579	1353.42664	-1587.68433	501.34702	1377.03687	-1608.25598	468.21930	1393.90881	-1584.24524	444.81467	1424.40002	-1582.13965	482.43692	1276.17883	-1775.69885	585.63043	1294.63623	-1723.29492	398.21692	1334.51257	-1688.50305	
1051	4.375	541.55750	1352.28369	-1555.37354	532.00629	1349.16174	-1615.48193	514.18500	1340.24878	-1667.51904	556.94849	1340.04541	-1593.85925	569.79974	1348.07751	-1621.24084	613.75415	1339.19055	-1620.11401	638.61877	1348.18323	-1631.81787	514.04803	1349.07324	-1578.20508	499.03098	1370.37122	-1595.89001	466.00714	1379.15454	-1568.78882	437.72345	1403.03247	-1561.02600	484.20398	1272.63696	-1766.34558	586.86676	1288.93579	-1715.34412	400.54926	1328.56506	-1679.07385	
1052	4.379	544.57825	1348.98511	-1546.63623	535.71686	1345.99854	-1606.75146	516.48389	1337.39075	-1658.28601	560.25940	1335.84436	-1585.05640	576.45355	1338.76941	-1612.02551	616.67926	1322.60779	-1605.53809	643.52332	1325.20447	-1614.69360	516.90302	1344.92444	-1568.79089	497.81265	1362.66418	-1582.70154	467.29581	1362.66748	-1552.95569	435.86511	1378.63159	-1539.86353	485.57474	1269.17297	-1756.62549	587.44403	1282.61963	-1707.69653	403.21854	1323.60278	-1670.19873	
1053	4.383	547.79053	1345.67822	-1537.79309	539.26874	1343.19604	-1597.85388	518.96503	1334.93591	-1648.91284	563.65808	1331.89172	-1576.06323	581.69281	1329.45288	-1601.66663	616.84290	1307.29761	-1589.08411	643.78510	1303.17651	-1594.61230	520.12024	1341.09009	-1559.50439	498.14572	1354.20654	-1569.31738	472.39676	1345.48291	-1537.71460	440.04062	1352.79492	-1519.89917	486.54291	1266.02246	-1746.62683	587.46783	1276.22864	-1700.23621	406.18213	1319.88416	-1661.88354	
1054	4.387	551.16931	1342.29590	-1528.82739	542.70618	1340.51538	-1588.87036	522.16248	1333.42041	-1639.80957	567.09283	1328.26758	-1566.89233	585.64423	1320.59814	-1590.81714	614.52234	1294.48010	-1571.71936	639.29956	1283.81201	-1572.75623	523.65540	1337.57581	-1550.29370	500.07315	1345.58716	-1556.41614	480.94675	1329.14917	-1523.91321	450.11426	1327.53149	-1502.32288	487.15509	1263.25867	-1736.40332	587.12720	1270.19604	-1692.88806	409.36230	1317.38660	-1653.98438	
1055	4.392	554.67554	1338.78052	-1519.71741	546.06073	1337.93213	-1579.75757	525.44043	1331.84949	-1630.61096	570.57355	1324.94031	-1557.54761	588.51575	1312.62720	-1580.04028	610.65161	1285.07959	-1554.58923	630.82764	1268.78784	-1550.78491	527.41089	1334.28674	-1541.03345	503.19034	1337.51111	-1544.56873	492.00745	1315.35669	-1511.92920	465.05301	1305.00635	-1487.86243	487.52151	1260.86682	-1726.02881	586.63690	1264.72168	-1685.60632	412.67783	1315.76208	-1646.19653	
1056	4.396	558.27972	1335.07019	-1510.43567	549.40955	1335.41541	-1570.44250	528.66364	1329.84314	-1621.12817	574.14923	1321.79956	-1548.02258	590.66675	1305.84790	-1569.82288	606.70593	1279.49377	-1538.76453	620.27228	1259.30615	-1530.38354	531.26947	1331.10266	-1531.59949	506.86224	1330.56067	-1534.04395	504.21564	1305.38904	-1501.66589	483.08041	1287.24060	-1476.47412	487.82492	1258.81445	-1715.62952	586.18317	1259.76636	-1678.31409	416.04849	1314.40808	-1638.10425	
1057	4.400	561.96539	1331.11206	-1500.94031	552.84442	1332.83032	-1560.86133	531.89130	1327.32043	-1611.36755	577.84363	1318.70691	-1538.32336	592.55859	1300.41931	-1560.52197	604.28650	1277.45667	-1525.04028	610.44092	1255.58093	-1512.77783	535.17065	1327.94397	-1521.91431	510.52350	1325.09326	-1524.73718	515.94366	1299.84583	-1492.68140	501.81573	1275.62463	-1467.35022	488.30658	1257.01343	-1705.31628	585.90564	1255.15271	-1670.86682	419.40634	1312.65979	-1629.30249	
1058	4.404	565.72864	1326.91345	-1491.19678	556.39490	1330.00269	-1550.96057	535.14874	1324.27917	-1601.33557	581.62897	1315.53735	-1528.47888	594.63312	1296.43530	-1552.30737	604.53717	1278.11768	-1513.80542	604.13867	1256.50525	-1498.51941	539.07330	1324.72815	-1511.99072	513.86383	1321.31384	-1516.35132	525.69006	1298.58337	-1484.31372	518.59406	1270.40527	-1459.28125	489.22696	1255.24573	-1695.08142	585.91803	1250.68469	-1663.06836	422.72174	1310.03271	-1619.54895	
1059	4.408	569.58344	1322.55713	-1481.20251	560.02356	1326.77344	-1540.70776	538.48846	1320.85645	-1591.04919	585.45081	1312.18250	-1518.52734	597.15631	1293.99548	-1545.09229	607.76166	1280.41321	-1504.99609	603.06232	1259.94788	-1487.59802	542.85236	1321.28833	-1501.93530	516.89441	1319.30847	-1508.67419	532.67834	1300.79248	-1475.96472	531.11932	1270.55286	-1451.22522	490.79590	1253.15930	-1684.78589	586.35181	1246.23792	-1654.72620	426.01898	1306.39661	-1608.85474	
1060	4.412	573.53802	1318.12219	-1470.96362	563.67633	1323.07043	-1530.11084	541.95471	1317.21521	-1580.55054	589.25873	1308.56482	-1508.49316	600.07422	1293.14539	-1538.46558	613.46130	1283.51086	-1498.16479	607.24792	1263.71594	-1479.75134	546.40771	1317.46826	-1491.87317	519.98230	1318.94629	-1501.66895	537.06378	1305.32153	-1467.40149	538.15765	1274.27441	-1442.78418	493.10635	1250.38599	-1674.26733	587.40039	1241.80872	-1645.72839	429.36160	1301.98853	-1597.45569	
